<svg version="1.1" id="Layer_1" xmlns="http://www.w3.org/2000/svg" xmlns:xlink="http://www.w3.org/1999/xlink" x="0px" y="0px"
	 viewBox="0 0 128 128" style="enable-background:new 0 0 128 128;" xml:space="preserve">
<style type="text/css">
	.st0{fill:#FFFFFF;}
</style>
<path class="st0" d="M64,32.3C29.5,32.3,1.5,46.5,1.5,64s28,31.7,62.5,31.7s62.5-14.2,62.5-31.7S98.5,32.3,64,32.3z M47.7,70.2
	c-1.5,1.4-3.1,2-5,2.6c-1.8,0.6-4.1,0.5-7,0.5h-6.4l-1.8,10.2H20l6.7-34.8h14.4c4.3,0,7.5,1.2,9.5,3.5s2.6,5.5,1.8,9.6
	c-0.3,1.7-0.9,3.2-1.7,4.6C50,67.7,49,69,47.7,70.2z M69.5,73.2l2.9-14.8c0.3-1.7,0.2-3-0.4-3.6s-1.8-1-3.7-1h-5.9l-3.8,19.4h-7.4
	l6.7-33.8h7.4l-1.8,9.2h6.6c4.2,0,7,0.8,8.6,2.3c1.6,1.4,2,3.4,1.4,6.7L77,73.2H69.5z M110.7,61.8c-0.3,1.7-0.9,3.2-1.7,4.6
	c-0.8,1.4-1.8,2.7-3,3.8c-1.5,1.4-3.1,2-5,2.6c-1.8,0.6-4.1,0.5-7,0.5h-6.4l-1.8,10.2h-7.5L85,48.7h14.4c4.3,0,7.5,1.2,9.5,3.5
	C110.9,54.4,111.5,57.7,110.7,61.8z M96.7,53.8h-5.1l-2.8,14.3h4.5c3,0,5.3-0.3,6.7-1.4c1.5-1.1,2.5-2.9,3-5.5
	c0.5-2.5,0.3-4.5-0.7-5.6C101.4,54.5,99.5,53.8,96.7,53.8z M38.4,53.8h-5.1l-2.8,14.3H35c3,0,5.3-0.3,6.7-1.4c1.5-1.1,2.5-2.9,3-5.5
	c0.5-2.5,0.3-4.5-0.7-5.6C43.1,54.5,41.2,53.8,38.4,53.8z"/>
</svg>